# xmcd
#
# Track frame offsets: 
#        150
#        21101
#        36647
#        60963
#        79250
#        102048
#        116520
#        129163
#        149924
#        169568
#        173103
#        181393
#        207286
#        225305
#        246280
#        257890
#        279756
#        307554
#        333311
#
# Disc length: 4695 seconds
#
# Revision: 0
# Processed by: cddbd v1.5.2PL0 Copyright (c) Steve Scherf et al.
# Submitted via: ExactAudioCopy v0.95b4
#
DISCID=fa125513
DTITLE=Various Artist - Music Maker Relief Foundation-Blues Sweet Blu
DTITLE=es
DYEAR=2007
DGENRE=Blues
TTITLE0=1. Music Maker Relief Foundation - Willa Mae Buckner, Cootie S
TTITLE0=tark and Captain Luke - Let the Good Times Roll (4:39)
TTITLE1=2. Music Maker Relief Foundation - Captain Luke - One of these
TTITLE1=Days (3:27)
TTITLE2=3. Music Maker Relief Foundation - Drink Small - President Cli
TTITLE2=nton Blues (5:24)
TTITLE3=4. Music Maker Relief Foundation - Robert "Wolfman" Belfour - 
TTITLE3=Treat Me Mean (4:03)
TTITLE4=5. Music Maker Relief Foundation - Guitar Gabriel - Blues Neve
TTITLE4=r Died (5:03)
TTITLE5=6. Music Maker Relief Foundation - Guitar Gabriel - Welfare Bl
TTITLE5=ues (3:12)
TTITLE6=7. Music Maker Relief Foundation - Mudcat - Big Fat Woman (2:4
TTITLE6=8)
TTITLE7=8. Music Maker Relief Foundation - Cootie Stark - Metal Bottom
TTITLE7=s (4:36)
TTITLE8=9. Music Maker Relief Foundation - John Lee Zeigler - Pretty S
TTITLE8=hoes (4:21)
TTITLE9=10. Music Maker Relief Foundation - Albert Smith - Learning to
TTITLE9=Play Pianon (0:47)
TTITLE10=11. Music Maker Relief Foundation - Albert Smith - Big Belly 
TTITLE10=Mamma (1:50)
TTITLE11=12. Music Maker Relief Foundation - Eddie Tigner - Slippin' I
TTITLE11=n (5:45)
TTITLE12=13. Music Maker Relief Foundation - Rufus McKenzie - Mellow P
TTITLE12=eaches (4:00)
TTITLE13=14. Music Maker Relief Foundation - Alabama Slim - I Got the 
TTITLE13=Blues (4:39)
TTITLE14=15. Music Maker Relief Foundation - J.W. Warren - John Henry 
TTITLE14=(2:34)
TTITLE15=16. Music Maker Relief Foundation - Carl Hodges - Meet Me in 
TTITLE15=the Bottom (4:51)
TTITLE16=17. Music Maker Relief Foundation - Paul Duffy - The Giant Sq
TTITLE16=uid (6:10)
TTITLE17=18. Music Maker Relief Foundation - Cora Fluker - Shotgun Boo
TTITLE17=gie (5:43)
TTITLE18=19. Music Maker Relief Foundation - Mr.Q - Juice Headed Woman
TTITLE18=(4:11)
EXTD=
EXTT0=
EXTT1=
EXTT2=
EXTT3=
EXTT4=
EXTT5=
EXTT6=
EXTT7=
EXTT8=
EXTT9=
EXTT10=
EXTT11=
EXTT12=
EXTT13=
EXTT14=
EXTT15=
EXTT16=
EXTT17=
EXTT18=
PLAYORDER=
